<?xml version="1.0" encoding="utf-8"?>
<!-- Generator: Adobe Illustrator 21.1.0, SVG Export Plug-In . SVG Version: 6.00 Build 0)  -->
<svg version="1.1" id="Ebene_1" xmlns="http://www.w3.org/2000/svg" xmlns:xlink="http://www.w3.org/1999/xlink" x="0px" y="0px"
	 viewBox="0 0 125.5 123.5" style="enable-background:new 0 0 125.5 123.5;" xml:space="preserve">
<style type="text/css">
	.st0{fill:#1D1D1B;}
	.st1{fill:#B4C82C;}
</style>
<polygon class="st0" points="-52,141.6 -52,197.3 -42,197.3 -42,177 -27.3,197.3 -15.8,197.3 -30.7,176.8 -16.9,160.5 -28.8,160.5 
	-42,176.3 -42,141.6 "/>
<g>
	<path class="st0" d="M-0.5,197.3h-10v-36.7h10V197.3z M-5.4,153.3c-3.6,0-6.5-2.7-6.5-6.2c0-3.6,2.9-6.2,6.5-6.2s6.4,2.7,6.4,6.2
		C0.9,150.6-1.9,153.3-5.4,153.3"/>
	<path class="st0" d="M17.4,175.2h16.8c-0.1-4.5-3.6-7.4-7.9-7.4C22,167.8,18.6,170.7,17.4,175.2 M43.2,182.3H17.4
		c1.3,4.7,5,7.3,10.4,7.3c3.6,0,7.1-1.3,10.2-3.7l4.1,6.8c-4.4,3.6-9.3,5.5-14.7,5.5c-5.8,0-10.6-1.9-14.4-5.5
		c-3.8-3.7-5.7-8.3-5.7-13.7s1.9-9.9,5.5-13.6c3.7-3.7,8.3-5.6,13.7-5.6c5.1,0,9.3,1.6,12.5,4.9c3.2,3.3,4.8,7.4,4.8,12.2
		C43.9,178.5,43.7,180.4,43.2,182.3"/>
	<path class="st0" d="M80.3,178.8c0-6-4.2-10.1-9.5-10.1c-5.1,0-9.3,3.6-9.3,10.2c0,6.6,4.2,10.1,9.3,10.1
		C76.2,189,80.3,185,80.3,178.8 M85.4,165.2c3.3,3.6,5.1,8.2,5.1,13.7s-1.7,10.2-5.1,13.8c-3.3,3.6-7.6,5.4-12.8,5.4
		c-5.2,0-9.1-1.9-11.8-5.5v4.6h-9.2v-55.6h10v22.5c2.6-2.9,6.3-4.4,11-4.4C77.9,159.7,82.1,161.6,85.4,165.2"/>
	<path class="st0" d="M108.4,197.3h-10v-36.7h10V197.3z M103.4,153.3c-3.6,0-6.5-2.7-6.5-6.2c0-3.6,2.9-6.2,6.5-6.2
		c3.6,0,6.4,2.7,6.4,6.2C109.8,150.6,107,153.3,103.4,153.3"/>
	<path class="st0" d="M141.9,188.9v8.4c-2.4,0.6-4.7,0.9-6.9,0.9c-9.3,0-14.7-4.6-14.7-13.8V169h-5.8v-8.5h5.8v-9.3h10v9.3h10.4v8.5
		h-10.4v14.5c0,4.2,2.1,5.7,6.8,5.7C137.8,189.2,139.3,189.1,141.9,188.9"/>
</g>
<polygon class="st0" points="161.8,188.8 178.6,188.8 178.6,197.3 145.5,197.3 163,169 146.3,169 146.3,160.5 178.4,160.5 "/>
<g>
	<path class="st0" d="M-48.3,235.4l-4.4-17.2h2.3l2,8.7c0.5,2.1,1,4.3,1.3,6h0.1c0.3-1.7,0.8-3.8,1.4-6l2.3-8.7h2.3l2.1,8.7
		c0.5,2,0.9,4.1,1.2,5.9h0.1c0.4-1.9,0.8-3.8,1.4-6l2.3-8.7h2.3l-4.9,17.2h-2.3l-2.2-9c-0.5-2.2-0.9-3.9-1.1-5.6h-0.1
		c-0.3,1.7-0.7,3.4-1.3,5.6l-2.4,9L-48.3,235.4L-48.3,235.4z"/>
	<path class="st0" d="M-29,229.3c0,2.7,1.5,4.8,3.7,4.8c2.2,0,3.8-2,3.8-4.8c0-2.1-1.1-4.7-3.7-4.7C-27.8,224.5-29,227-29,229.3
		 M-19.2,229.2c0,4.6-3.2,6.6-6.2,6.6c-3.3,0-5.9-2.5-5.9-6.4c0-4.1,2.7-6.5,6.1-6.5C-21.6,222.8-19.2,225.4-19.2,229.2"/>
	<path class="st0" d="M-8.6,233.8c0.5,0.1,1.1,0.1,1.9,0.1c2.3,0,4.4-0.8,4.4-3.4c0-2.3-2-3.3-4.4-3.3h-1.8L-8.6,233.8L-8.6,233.8z
		 M-8.6,225.5h2c2.3,0,3.7-1.3,3.7-2.9c0-2-1.5-2.8-3.8-2.8c-1,0-1.6,0.1-2,0.1V225.5z M-10.9,218.5c1-0.2,2.5-0.4,4.1-0.4
		c2.2,0,3.6,0.4,4.7,1.3c0.9,0.7,1.5,1.7,1.5,3c0,1.7-1.1,3.1-2.9,3.8v0.1c1.6,0.4,3.6,1.7,3.6,4.3c0,1.5-0.6,2.6-1.5,3.5
		c-1.2,1.1-3.1,1.6-5.9,1.6c-1.5,0-2.7-0.1-3.4-0.2L-10.9,218.5L-10.9,218.5z"/>
	<path class="st0" d="M2.9,223.1h2.3v12.4H2.9V223.1z M5.4,219.6c0,0.8-0.5,1.4-1.4,1.4c-0.8,0-1.4-0.6-1.4-1.4s0.6-1.4,1.4-1.4
		C4.9,218.2,5.4,218.8,5.4,219.6"/>
	<path class="st0" d="M10.3,229.3c0,2.7,1.5,4.8,3.7,4.8c2.1,0,3.8-2,3.8-4.8c0-2.1-1.1-4.7-3.7-4.7C11.4,224.5,10.3,227,10.3,229.3
		 M20.1,229.2c0,4.6-3.2,6.6-6.2,6.6c-3.3,0-5.9-2.5-5.9-6.4c0-4.1,2.7-6.5,6.1-6.5C17.7,222.8,20.1,225.4,20.1,229.2"/>
	<path class="st0" d="M34.8,229.1c-2.4,0-5.2,0.4-5.2,2.8c0,1.5,1,2.1,2.1,2.1c1.6,0,2.7-1,3-2.1c0.1-0.3,0.1-0.5,0.1-0.7V229.1z
		 M37,232.5c0,1.1,0.1,2.1,0.2,3h-2l-0.2-1.6h-0.1c-0.7,1-2,1.8-3.8,1.8c-2.5,0-3.8-1.8-3.8-3.5c0-3,2.7-4.6,7.4-4.6v-0.3
		c0-1-0.3-2.9-2.8-2.8c-1.2,0-2.4,0.3-3.2,0.9l-0.5-1.5c1-0.6,2.5-1.1,4.1-1.1c3.8,0,4.7,2.6,4.7,5L37,232.5L37,232.5z"/>
	<path class="st0" d="M51,232c0,1.3,0,2.4,0.1,3.4h-2l-0.1-2h-0.1c-0.6,1-1.9,2.3-4.1,2.3c-1.9,0-4.3-1.1-4.3-5.4v-7.2h2.3v6.8
		c0,2.4,0.7,4,2.8,4c1.5,0,2.6-1,3-2.1c0.1-0.3,0.2-0.7,0.2-1.1v-7.6H51L51,232L51,232z"/>
	<path class="st0" d="M55,235.4v-10.6h-1.7v-1.7H55v-0.6c0-1.7,0.4-3.3,1.4-4.3c0.8-0.8,2-1.1,3-1.1c0.8,0,1.5,0.2,1.9,0.4l-0.3,1.7
		c-0.3-0.1-0.8-0.3-1.4-0.3c-1.9,0-2.4,1.7-2.4,3.6v0.7h3v1.7h-3v10.6L55,235.4L55,235.4z"/>
	<path class="st0" d="M69.9,226.3h2.3c2.4,0,3.9-1.3,3.9-3.3c0-2.2-1.6-3.2-4-3.2c-1.1,0-1.8,0.1-2.2,0.2L69.9,226.3L69.9,226.3z
		 M67.7,218.5c1.1-0.2,2.8-0.4,4.3-0.4c2.4,0,3.9,0.5,5,1.4c0.8,0.8,1.4,1.9,1.4,3.3c0,2.3-1.4,3.8-3.2,4.4v0.1
		c1.3,0.5,2.1,1.7,2.5,3.5c0.6,2.4,1,4.1,1.3,4.7h-2.3c-0.3-0.5-0.7-2-1.1-4.1C75,229,74,228.1,72,228h-2.1v7.5h-2.2L67.7,218.5
		L67.7,218.5z"/>
	<path class="st0" d="M89.3,228.1c0-1.4-0.6-3.6-3.1-3.6c-2.3,0-3.3,2.1-3.4,3.6H89.3z M82.7,229.7c0.1,3,2,4.3,4.2,4.3
		c1.6,0,2.6-0.3,3.4-0.6l0.4,1.6c-0.8,0.4-2.2,0.8-4.1,0.8c-3.8,0-6.1-2.5-6.1-6.3s2.2-6.6,5.8-6.6c4.1,0,5.1,3.5,5.1,5.8
		c0,0.5,0,0.8-0.1,1L82.7,229.7L82.7,229.7z"/>
	<path class="st0" d="M102.6,228c0-0.4,0-0.7-0.1-1c-0.4-1.3-1.5-2.4-3.1-2.4c-2.1,0-3.7,1.8-3.7,4.7c0,2.4,1.3,4.5,3.6,4.5
		c1.4,0,2.7-0.9,3.1-2.3c0.1-0.4,0.2-0.8,0.2-1.2L102.6,228L102.6,228z M104.8,233.6c0,2.9-0.6,4.6-1.8,5.7c-1.2,1.1-3,1.5-4.5,1.5
		c-1.5,0-3.1-0.4-4.1-1L95,238c0.8,0.5,2.1,1,3.6,1c2.3,0,4-1.2,4-4.3v-1.4h-0.1c-0.7,1.1-2,2.1-3.9,2.1c-3.1,0-5.3-2.6-5.3-6
		c0-4.2,2.7-6.5,5.6-6.5c2.1,0,3.3,1.1,3.9,2.1h0.1l0.1-1.9h2c-0.1,0.9-0.1,1.9-0.1,3.4L104.8,233.6L104.8,233.6z"/>
	<path class="st0" d="M108.4,223.1h2.3v12.4h-2.3V223.1z M110.9,219.6c0,0.8-0.5,1.4-1.4,1.4c-0.8,0-1.4-0.6-1.4-1.4
		s0.6-1.4,1.4-1.4C110.3,218.2,110.9,218.8,110.9,219.6"/>
	<path class="st0" d="M115.8,229.3c0,2.7,1.5,4.8,3.7,4.8c2.1,0,3.8-2,3.8-4.8c0-2.1-1-4.7-3.7-4.7
		C116.9,224.5,115.8,227,115.8,229.3 M125.5,229.2c0,4.6-3.2,6.6-6.2,6.6c-3.3,0-5.9-2.5-5.9-6.4c0-4.1,2.7-6.5,6.1-6.5
		C123.1,222.8,125.5,225.4,125.5,229.2"/>
	<path class="st0" d="M136.5,220.1v3h3.2v1.7h-3.2v6.7c0,1.5,0.4,2.4,1.7,2.4c0.6,0,1,0,1.3-0.1l0.1,1.7c-0.4,0.1-1.1,0.3-2,0.3
		c-1,0-1.9-0.4-2.4-1c-0.6-0.7-0.9-1.8-0.9-3.2v-6.7h-1.9v-1.7h1.9v-2.3L136.5,220.1z"/>
	<path class="st0" d="M142.3,226.9c0-1.5,0-2.7-0.1-3.9h2l0.1,2.5h0.1c0.6-1.7,1.9-2.7,3.5-2.7c0.2,0,0.4,0,0.6,0v2.1
		c-0.2,0-0.5,0-0.8,0c-1.6,0-2.7,1.2-3,2.9c0,0.3-0.1,0.7-0.1,1v6.6h-2.3V226.9z"/>
	<path class="st0" d="M150.7,223.1h2.3v12.4h-2.3V223.1z M153.2,219.6c0,0.8-0.5,1.4-1.4,1.4c-0.8,0-1.4-0.6-1.4-1.4
		s0.6-1.4,1.4-1.4C152.6,218.2,153.2,218.8,153.2,219.6"/>
	<path class="st0" d="M164.4,235.4v-10.6h-5.2v10.6h-2.2v-10.6h-1.7v-1.7h1.7v-0.4c0-1.7,0.4-3.2,1.4-4.2c0.7-0.7,1.7-1.1,3.1-1.1
		c0.7,0,1.4,0.2,1.8,0.4l-0.5,1.7c-0.3-0.2-0.8-0.3-1.3-0.3c-1.8,0-2.3,1.5-2.3,3.5v0.5h5.2v-0.6c0-1.7,0.4-3.3,1.4-4.3
		c0.8-0.8,2-1.1,3-1.1c0.8,0,1.5,0.2,1.9,0.4l-0.3,1.7c-0.4-0.1-0.8-0.3-1.5-0.3c-1.9,0-2.4,1.7-2.4,3.6v0.7h3v1.7h-3v10.6
		L164.4,235.4L164.4,235.4z"/>
	<path class="st0" d="M174.6,220.1v3h3.2v1.7h-3.2v6.7c0,1.5,0.4,2.4,1.7,2.4c0.6,0,1,0,1.3-0.1l0.1,1.7c-0.4,0.1-1.1,0.3-2,0.3
		c-1,0-1.9-0.4-2.4-1c-0.6-0.7-0.9-1.8-0.9-3.2v-6.7h-1.9v-1.7h1.9v-2.3L174.6,220.1z"/>
	<path class="st0" d="M179.7,234.1c0-0.9,0.6-1.6,1.5-1.6c0.9,0,1.5,0.7,1.5,1.6c0,0.9-0.6,1.6-1.6,1.6
		C180.3,235.7,179.7,235,179.7,234.1"/>
</g>
<path class="st1" d="M90.4,14C83.9,10.1,47-9.1,19.9,24.7c0,0-5.5,6.1-9.7,15.7C3.9,54.5,0.6,76.1,21.9,97.1
	c4.2,4.6,36.1,32.4,69.8,8.6c6-4.3,12.1-10.2,18.1-18.2C118.9,72.3,134.8,41.7,90.4,14z"/>
</svg>
