<?xml version="1.0" encoding="utf-8"?>
<!-- Generator: Adobe Illustrator 21.1.0, SVG Export Plug-In . SVG Version: 6.00 Build 0)  -->
<svg version="1.1" id="Ebene_1" xmlns="http://www.w3.org/2000/svg" xmlns:xlink="http://www.w3.org/1999/xlink" x="0px" y="0px"
	 viewBox="0 0 246 247" style="enable-background:new 0 0 246 247;" xml:space="preserve">
<style type="text/css">
	.st0{fill:#1D1D1B;}
	.st1{fill:#B4C82C;}
</style>
<polygon class="st0" points="6.3,141.6 6.3,197.3 16.4,197.3 16.4,177 31.1,197.3 42.6,197.3 27.7,176.8 41.4,160.5 29.6,160.5 
	16.4,176.3 16.4,141.6 "/>
<g>
	<path class="st0" d="M57.9,197.3h-10v-36.7h10V197.3z M52.9,153.3c-3.6,0-6.5-2.7-6.5-6.2c0-3.6,2.9-6.2,6.5-6.2s6.4,2.7,6.4,6.2
		C59.3,150.6,56.5,153.3,52.9,153.3"/>
	<path class="st0" d="M75.8,175.2h16.8c-0.1-4.5-3.6-7.4-7.9-7.4C80.4,167.8,77,170.7,75.8,175.2 M101.6,182.3H75.8
		c1.3,4.7,5,7.3,10.4,7.3c3.6,0,7.1-1.3,10.2-3.7l4.1,6.8c-4.4,3.6-9.3,5.5-14.7,5.5c-5.8,0-10.6-1.9-14.4-5.5
		c-3.8-3.7-5.7-8.3-5.7-13.7s1.9-9.9,5.5-13.6c3.7-3.7,8.3-5.6,13.7-5.6c5.1,0,9.3,1.6,12.5,4.9c3.2,3.3,4.8,7.4,4.8,12.2
		C102.3,178.5,102.1,180.4,101.6,182.3"/>
	<path class="st0" d="M138.7,178.8c0-6-4.2-10.1-9.5-10.1c-5.1,0-9.3,3.6-9.3,10.2c0,6.6,4.2,10.1,9.3,10.1
		C134.6,189,138.7,185,138.7,178.8 M143.8,165.2c3.3,3.6,5.1,8.2,5.1,13.7s-1.7,10.2-5.1,13.8c-3.3,3.6-7.6,5.4-12.8,5.4
		c-5.2,0-9.1-1.9-11.8-5.5v4.6h-9.2v-55.6h10v22.5c2.6-2.9,6.3-4.4,11-4.4C136.3,159.7,140.5,161.6,143.8,165.2"/>
	<path class="st0" d="M166.8,197.3h-10v-36.7h10V197.3z M161.8,153.3c-3.6,0-6.5-2.7-6.5-6.2c0-3.6,2.9-6.2,6.5-6.2
		c3.6,0,6.4,2.7,6.4,6.2C168.2,150.6,165.4,153.3,161.8,153.3"/>
	<path class="st0" d="M200.3,188.9v8.4c-2.4,0.6-4.7,0.9-6.9,0.9c-9.3,0-14.7-4.6-14.7-13.8V169h-5.8v-8.5h5.8v-9.3h10v9.3h10.4v8.5
		h-10.4v14.5c0,4.2,2.1,5.7,6.8,5.7C196.1,189.2,197.7,189.1,200.3,188.9"/>
</g>
<polygon class="st0" points="220.2,188.8 237,188.8 237,197.3 203.9,197.3 221.4,169 204.7,169 204.7,160.5 236.8,160.5 "/>
<g>
	<path class="st0" d="M10.1,235.4l-4.4-17.2h2.3l2,8.7c0.5,2.1,1,4.3,1.3,6h0.1c0.3-1.7,0.8-3.8,1.4-6l2.3-8.7h2.3l2.1,8.7
		c0.5,2,0.9,4.1,1.2,5.9h0.1c0.4-1.9,0.8-3.8,1.4-6l2.3-8.7h2.3l-4.9,17.2h-2.3l-2.2-9c-0.5-2.2-0.9-3.9-1.1-5.6h-0.1
		c-0.3,1.7-0.7,3.4-1.3,5.6l-2.4,9L10.1,235.4L10.1,235.4z"/>
	<path class="st0" d="M29.4,229.3c0,2.7,1.5,4.8,3.7,4.8c2.2,0,3.8-2,3.8-4.8c0-2.1-1.1-4.7-3.7-4.7C30.6,224.5,29.4,227,29.4,229.3
		 M39.2,229.2c0,4.6-3.2,6.6-6.2,6.6c-3.3,0-5.9-2.5-5.9-6.4c0-4.1,2.7-6.5,6.1-6.5C36.8,222.8,39.2,225.4,39.2,229.2"/>
	<path class="st0" d="M49.8,233.8c0.5,0.1,1.1,0.1,1.9,0.1c2.3,0,4.4-0.8,4.4-3.4c0-2.3-2-3.3-4.4-3.3h-1.8L49.8,233.8L49.8,233.8z
		 M49.8,225.5h2c2.3,0,3.7-1.3,3.7-2.9c0-2-1.5-2.8-3.8-2.8c-1,0-1.6,0.1-2,0.1V225.5z M47.5,218.5c1-0.2,2.5-0.4,4.1-0.4
		c2.2,0,3.6,0.4,4.7,1.3c0.9,0.7,1.5,1.7,1.5,3c0,1.7-1.1,3.1-2.9,3.8v0.1c1.6,0.4,3.6,1.7,3.6,4.3c0,1.5-0.6,2.6-1.5,3.5
		c-1.2,1.1-3.1,1.6-5.9,1.6c-1.5,0-2.7-0.1-3.4-0.2L47.5,218.5L47.5,218.5z"/>
	<path class="st0" d="M61.3,223.1h2.3v12.4h-2.3V223.1z M63.8,219.6c0,0.8-0.5,1.4-1.4,1.4c-0.8,0-1.4-0.6-1.4-1.4s0.6-1.4,1.4-1.4
		C63.3,218.2,63.8,218.8,63.8,219.6"/>
	<path class="st0" d="M68.7,229.3c0,2.7,1.5,4.8,3.7,4.8c2.1,0,3.8-2,3.8-4.8c0-2.1-1.1-4.7-3.7-4.7C69.8,224.5,68.7,227,68.7,229.3
		 M78.5,229.2c0,4.6-3.2,6.6-6.2,6.6c-3.3,0-5.9-2.5-5.9-6.4c0-4.1,2.7-6.5,6.1-6.5C76.1,222.8,78.5,225.4,78.5,229.2"/>
	<path class="st0" d="M93.2,229.1c-2.4,0-5.2,0.4-5.2,2.8c0,1.5,1,2.1,2.1,2.1c1.6,0,2.7-1,3-2.1c0.1-0.3,0.1-0.5,0.1-0.7V229.1z
		 M95.4,232.5c0,1.1,0.1,2.1,0.2,3h-2l-0.2-1.6h-0.1c-0.7,1-2,1.8-3.8,1.8c-2.5,0-3.8-1.8-3.8-3.5c0-3,2.7-4.6,7.4-4.6v-0.3
		c0-1-0.3-2.9-2.8-2.8c-1.2,0-2.4,0.3-3.2,0.9l-0.5-1.5c1-0.6,2.5-1.1,4.1-1.1c3.8,0,4.7,2.6,4.7,5L95.4,232.5L95.4,232.5z"/>
	<path class="st0" d="M109.4,232c0,1.3,0,2.4,0.1,3.4h-2l-0.1-2h-0.1c-0.6,1-1.9,2.3-4.1,2.3c-1.9,0-4.3-1.1-4.3-5.4v-7.2h2.3v6.8
		c0,2.4,0.7,4,2.8,4c1.5,0,2.6-1,3-2.1c0.1-0.3,0.2-0.7,0.2-1.1v-7.6h2.3L109.4,232L109.4,232z"/>
	<path class="st0" d="M113.4,235.4v-10.6h-1.7v-1.7h1.7v-0.6c0-1.7,0.4-3.3,1.4-4.3c0.8-0.8,2-1.1,3-1.1c0.8,0,1.5,0.2,1.9,0.4
		l-0.3,1.7c-0.3-0.1-0.8-0.3-1.4-0.3c-1.9,0-2.4,1.7-2.4,3.6v0.7h3v1.7h-3v10.6L113.4,235.4L113.4,235.4z"/>
	<path class="st0" d="M128.3,226.3h2.3c2.4,0,3.9-1.3,3.9-3.3c0-2.2-1.6-3.2-4-3.2c-1.1,0-1.8,0.1-2.2,0.2L128.3,226.3L128.3,226.3z
		 M126.1,218.5c1.1-0.2,2.8-0.4,4.3-0.4c2.4,0,3.9,0.5,5,1.4c0.8,0.8,1.4,1.9,1.4,3.3c0,2.3-1.4,3.8-3.2,4.4v0.1
		c1.3,0.5,2.1,1.7,2.5,3.5c0.6,2.4,1,4.1,1.3,4.7H135c-0.3-0.5-0.7-2-1.1-4.1c-0.5-2.4-1.5-3.3-3.5-3.4h-2.1v7.5h-2.2L126.1,218.5
		L126.1,218.5z"/>
	<path class="st0" d="M147.7,228.1c0-1.4-0.6-3.6-3.1-3.6c-2.3,0-3.3,2.1-3.4,3.6H147.7z M141.1,229.7c0.1,3,2,4.3,4.2,4.3
		c1.6,0,2.6-0.3,3.4-0.6l0.4,1.6c-0.8,0.4-2.2,0.8-4.1,0.8c-3.8,0-6.1-2.5-6.1-6.3s2.2-6.6,5.8-6.6c4.1,0,5.1,3.5,5.1,5.8
		c0,0.5,0,0.8-0.1,1L141.1,229.7L141.1,229.7z"/>
	<path class="st0" d="M161,228c0-0.4,0-0.7-0.1-1c-0.4-1.3-1.5-2.4-3.1-2.4c-2.1,0-3.7,1.8-3.7,4.7c0,2.4,1.3,4.5,3.6,4.5
		c1.4,0,2.7-0.9,3.1-2.3c0.1-0.4,0.2-0.8,0.2-1.2L161,228L161,228z M163.2,233.6c0,2.9-0.6,4.6-1.8,5.7c-1.2,1.1-3,1.5-4.5,1.5
		c-1.5,0-3.1-0.4-4.1-1l0.6-1.7c0.8,0.5,2.1,1,3.6,1c2.3,0,4-1.2,4-4.3v-1.4h-0.1c-0.7,1.1-2,2.1-3.9,2.1c-3.1,0-5.3-2.6-5.3-6
		c0-4.2,2.7-6.5,5.6-6.5c2.1,0,3.3,1.1,3.9,2.1h0.1l0.1-1.9h2c-0.1,0.9-0.1,1.9-0.1,3.4L163.2,233.6L163.2,233.6z"/>
	<path class="st0" d="M166.8,223.1h2.3v12.4h-2.3V223.1z M169.3,219.6c0,0.8-0.5,1.4-1.4,1.4c-0.8,0-1.4-0.6-1.4-1.4
		s0.6-1.4,1.4-1.4C168.7,218.2,169.3,218.8,169.3,219.6"/>
	<path class="st0" d="M174.2,229.3c0,2.7,1.5,4.8,3.7,4.8c2.1,0,3.8-2,3.8-4.8c0-2.1-1-4.7-3.7-4.7
		C175.3,224.5,174.2,227,174.2,229.3 M183.9,229.2c0,4.6-3.2,6.6-6.2,6.6c-3.3,0-5.9-2.5-5.9-6.4c0-4.1,2.7-6.5,6.1-6.5
		C181.5,222.8,183.9,225.4,183.9,229.2"/>
	<path class="st0" d="M194.9,220.1v3h3.2v1.7h-3.2v6.7c0,1.5,0.4,2.4,1.7,2.4c0.6,0,1,0,1.3-0.1l0.1,1.7c-0.4,0.1-1.1,0.3-2,0.3
		c-1,0-1.9-0.4-2.4-1c-0.6-0.7-0.9-1.8-0.9-3.2v-6.7h-1.9v-1.7h1.9v-2.3L194.9,220.1z"/>
	<path class="st0" d="M200.6,226.9c0-1.5,0-2.7-0.1-3.9h2l0.1,2.5h0.1c0.6-1.7,1.9-2.7,3.5-2.7c0.2,0,0.4,0,0.6,0v2.1
		c-0.2,0-0.5,0-0.8,0c-1.6,0-2.7,1.2-3,2.9c0,0.3-0.1,0.7-0.1,1v6.6h-2.3V226.9z"/>
	<path class="st0" d="M209.1,223.1h2.3v12.4h-2.3V223.1z M211.6,219.6c0,0.8-0.5,1.4-1.4,1.4c-0.8,0-1.4-0.6-1.4-1.4
		s0.6-1.4,1.4-1.4C211,218.2,211.6,218.8,211.6,219.6"/>
	<path class="st0" d="M222.8,235.4v-10.6h-5.2v10.6h-2.2v-10.6h-1.7v-1.7h1.7v-0.4c0-1.7,0.4-3.2,1.4-4.2c0.7-0.7,1.7-1.1,3.1-1.1
		c0.7,0,1.4,0.2,1.8,0.4l-0.5,1.7c-0.3-0.2-0.8-0.3-1.3-0.3c-1.8,0-2.3,1.5-2.3,3.5v0.5h5.2v-0.6c0-1.7,0.4-3.3,1.4-4.3
		c0.8-0.8,2-1.1,3-1.1c0.8,0,1.5,0.2,1.9,0.4l-0.3,1.7c-0.4-0.1-0.8-0.3-1.5-0.3c-1.9,0-2.4,1.7-2.4,3.6v0.7h3v1.7h-3v10.6
		L222.8,235.4L222.8,235.4z"/>
	<path class="st0" d="M233,220.1v3h3.2v1.7H233v6.7c0,1.5,0.4,2.4,1.7,2.4c0.6,0,1,0,1.3-0.1l0.1,1.7c-0.4,0.1-1.1,0.3-2,0.3
		c-1,0-1.9-0.4-2.4-1c-0.6-0.7-0.9-1.8-0.9-3.2v-6.7h-1.9v-1.7h1.9v-2.3L233,220.1z"/>
	<path class="st0" d="M238.1,234.1c0-0.9,0.6-1.6,1.5-1.6c0.9,0,1.5,0.7,1.5,1.6c0,0.9-0.6,1.6-1.6,1.6
		C238.7,235.7,238.1,235,238.1,234.1"/>
</g>
<path class="st1" d="M148.8,14c-6.5-3.9-43.3-23.1-70.5,10.8c0,0-5.5,6.1-9.7,15.7C62.3,54.5,59,76.1,80.3,97.1
	c4.2,4.6,36.1,32.4,69.8,8.6c6-4.3,12.1-10.2,18.1-18.2C177.3,72.3,193.2,41.7,148.8,14z"/>
</svg>
