<?xml version="1.0" encoding="utf-8"?>
<!-- Generator: Adobe Illustrator 23.0.4, SVG Export Plug-In . SVG Version: 6.00 Build 0)  -->
<svg version="1.1" id="Ebene_1" xmlns="http://www.w3.org/2000/svg" xmlns:xlink="http://www.w3.org/1999/xlink" x="0px" y="0px"
	 viewBox="0 0 434.91 435.6" style="enable-background:new 0 0 434.91 435.6;" xml:space="preserve">
<style type="text/css">
	.st0{fill:#1D1D1B;}
	.st1{fill:#B4C82C;}
</style>
<polygon class="st0" points="100.35,236.49 100.35,292.14 110.37,292.14 110.37,271.88 125.13,292.14 136.56,292.14 121.65,271.66 
	135.45,255.41 123.58,255.41 110.37,271.14 110.37,236.49 "/>
<g>
	<path class="st0" d="M151.92,292.14H141.9v-36.73h10.02V292.14z M146.95,248.21c-3.56,0-6.46-2.67-6.46-6.16
		c0-3.56,2.89-6.23,6.46-6.23s6.38,2.67,6.38,6.23C153.33,245.54,150.51,248.21,146.95,248.21"/>
	<path class="st0" d="M169.8,270.1h16.77c-0.07-4.53-3.56-7.42-7.94-7.42C174.4,262.68,170.99,265.58,169.8,270.1 M195.62,277.15
		H169.8c1.26,4.68,5.04,7.27,10.39,7.27c3.64,0,7.05-1.26,10.24-3.71l4.15,6.83c-4.38,3.64-9.28,5.49-14.69,5.49
		c-5.79,0-10.61-1.85-14.4-5.49c-3.79-3.71-5.71-8.31-5.71-13.73c0-5.42,1.86-9.94,5.49-13.65c3.71-3.71,8.31-5.57,13.73-5.57
		c5.12,0,9.27,1.63,12.46,4.9c3.19,3.26,4.82,7.35,4.82,12.17C196.29,273.44,196.07,275.3,195.62,277.15"/>
	<path class="st0" d="M232.72,273.74c0-6.01-4.16-10.09-9.5-10.09c-5.12,0-9.27,3.64-9.27,10.17c0,6.6,4.23,10.09,9.27,10.09
		C228.64,283.9,232.72,279.9,232.72,273.74 M237.84,260.09c3.34,3.64,5.05,8.16,5.05,13.73c0,5.57-1.71,10.17-5.05,13.8
		c-3.34,3.64-7.57,5.42-12.76,5.42c-5.19,0-9.13-1.85-11.8-5.49v4.6h-9.2v-55.65h10.02v22.48c2.6-2.89,6.31-4.38,10.98-4.38
		C230.27,254.59,234.5,256.45,237.84,260.09"/>
	<path class="st0" d="M260.77,292.14h-10.02v-36.73h10.02V292.14z M255.8,248.21c-3.56,0-6.46-2.67-6.46-6.16
		c0-3.56,2.89-6.23,6.46-6.23c3.56,0,6.38,2.67,6.38,6.23C262.18,245.54,259.36,248.21,255.8,248.21"/>
	<path class="st0" d="M294.31,283.76v8.39c-2.38,0.59-4.67,0.89-6.9,0.89c-9.28,0-14.69-4.6-14.69-13.8v-15.36h-5.79v-8.46h5.79
		v-9.27h10.02v9.27h10.39v8.46h-10.39v14.47c0,4.16,2.08,5.71,6.83,5.71C290.15,284.05,291.71,283.98,294.31,283.76"/>
</g>
<polygon class="st0" points="314.23,283.68 330.98,283.68 330.98,292.14 297.87,292.14 315.38,263.87 298.74,263.87 298.74,255.41 
	330.83,255.41 "/>
<g>
	<path class="st0" d="M104.13,330.34l-4.37-17.22h2.35l2.04,8.71c0.51,2.15,0.97,4.29,1.28,5.95h0.05c0.28-1.71,0.82-3.76,1.4-5.98
		l2.3-8.68h2.32l2.09,8.74c0.49,2.04,0.94,4.09,1.2,5.9h0.05c0.36-1.89,0.84-3.81,1.38-5.95l2.27-8.68h2.27l-4.88,17.22h-2.32
		l-2.17-8.97c-0.54-2.2-0.89-3.88-1.12-5.62h-0.05c-0.28,1.71-0.69,3.4-1.33,5.62l-2.45,8.97H104.13z"/>
	<path class="st0" d="M123.42,324.18c0,2.71,1.53,4.75,3.73,4.75c2.15,0,3.76-2.02,3.76-4.8c0-2.1-1.05-4.73-3.7-4.73
		C124.57,319.41,123.42,321.86,123.42,324.18 M133.2,324.06c0,4.57-3.19,6.56-6.16,6.56c-3.32,0-5.93-2.45-5.93-6.36
		c0-4.11,2.73-6.54,6.13-6.54C130.8,317.72,133.2,320.3,133.2,324.06"/>
	<path class="st0" d="M143.76,328.65c0.46,0.08,1.07,0.1,1.87,0.1c2.3,0,4.42-0.84,4.42-3.35c0-2.32-2.02-3.32-4.44-3.32h-1.84
		V328.65z M143.76,320.43h2.02c2.32,0,3.7-1.25,3.7-2.91c0-1.99-1.51-2.81-3.75-2.81c-1.02,0-1.61,0.08-1.97,0.15V320.43z
		 M141.54,313.38c0.97-0.23,2.53-0.38,4.06-0.38c2.22,0,3.65,0.38,4.7,1.25c0.89,0.66,1.46,1.69,1.46,3.04
		c0,1.69-1.12,3.14-2.91,3.78v0.08c1.63,0.38,3.55,1.74,3.55,4.29c0,1.48-0.59,2.63-1.48,3.45c-1.17,1.1-3.12,1.61-5.93,1.61
		c-1.53,0-2.71-0.1-3.45-0.2V313.38z"/>
	<path class="st0" d="M155.31,317.98h2.25v12.36h-2.25V317.98z M157.81,314.5c0,0.77-0.54,1.38-1.43,1.38
		c-0.82,0-1.35-0.61-1.35-1.38s0.56-1.4,1.4-1.4C157.25,313.1,157.81,313.71,157.81,314.5"/>
	<path class="st0" d="M162.69,324.18c0,2.71,1.53,4.75,3.73,4.75c2.15,0,3.76-2.02,3.76-4.8c0-2.1-1.05-4.73-3.7-4.73
		C163.84,319.41,162.69,321.86,162.69,324.18 M172.47,324.06c0,4.57-3.19,6.56-6.16,6.56c-3.32,0-5.93-2.45-5.93-6.36
		c0-4.11,2.73-6.54,6.13-6.54C170.07,317.72,172.47,320.3,172.47,324.06"/>
	<path class="st0" d="M187.24,324.03c-2.45-0.05-5.24,0.38-5.24,2.78c0,1.48,0.97,2.15,2.1,2.15c1.63,0,2.68-1.02,3.04-2.07
		c0.08-0.26,0.1-0.51,0.1-0.72V324.03z M189.41,327.38c0,1.07,0.05,2.12,0.18,2.96h-2.02l-0.18-1.56h-0.08
		c-0.69,0.97-2.02,1.84-3.78,1.84c-2.5,0-3.78-1.76-3.78-3.55c0-2.99,2.66-4.62,7.43-4.6v-0.26c0-1-0.28-2.86-2.81-2.83
		c-1.17,0-2.38,0.33-3.24,0.92l-0.51-1.51c1.02-0.64,2.53-1.07,4.09-1.07c3.78,0,4.7,2.58,4.7,5.03V327.38z"/>
	<path class="st0" d="M203.39,326.94c0,1.3,0.02,2.43,0.1,3.4h-1.99l-0.13-2.02h-0.05c-0.56,1-1.89,2.3-4.09,2.3
		c-1.94,0-4.27-1.1-4.27-5.42v-7.23h2.25v6.82c0,2.35,0.74,3.96,2.76,3.96c1.51,0,2.55-1.05,2.96-2.07c0.13-0.31,0.2-0.72,0.2-1.15
		v-7.56h2.25V326.94z"/>
	<path class="st0" d="M207.35,330.34v-10.65h-1.71v-1.71h1.71v-0.59c0-1.74,0.41-3.32,1.43-4.32c0.84-0.82,1.97-1.15,3.01-1.15
		c0.82,0,1.48,0.18,1.92,0.36l-0.31,1.74c-0.33-0.15-0.77-0.28-1.43-0.28c-1.92,0-2.4,1.66-2.4,3.58v0.66h2.99v1.71h-2.99v10.65
		H207.35z"/>
	<path class="st0" d="M222.3,321.2h2.27c2.38,0,3.88-1.3,3.88-3.27c0-2.22-1.61-3.19-3.96-3.19c-1.07,0-1.81,0.08-2.2,0.18V321.2z
		 M220.07,313.35c1.12-0.2,2.76-0.36,4.27-0.36c2.38,0,3.93,0.46,4.98,1.4c0.84,0.77,1.36,1.94,1.36,3.3c0,2.25-1.43,3.76-3.22,4.37
		v0.08c1.3,0.46,2.1,1.69,2.5,3.47c0.56,2.4,0.97,4.06,1.33,4.73h-2.3c-0.28-0.51-0.66-1.97-1.12-4.11
		c-0.51-2.38-1.46-3.27-3.47-3.35h-2.09v7.46h-2.22V313.35z"/>
	<path class="st0" d="M241.69,322.96c0.03-1.41-0.59-3.63-3.12-3.63c-2.3,0-3.27,2.07-3.45,3.63H241.69z M235.1,324.57
		c0.05,3.04,1.97,4.29,4.24,4.29c1.61,0,2.61-0.28,3.42-0.64l0.41,1.61c-0.79,0.36-2.17,0.79-4.14,0.79c-3.81,0-6.08-2.53-6.08-6.26
		s2.2-6.64,5.8-6.64c4.06,0,5.11,3.52,5.11,5.8c0,0.46-0.03,0.79-0.08,1.05H235.1z"/>
	<path class="st0" d="M254.97,322.86c0-0.38-0.03-0.72-0.13-1c-0.41-1.33-1.48-2.4-3.14-2.4c-2.15,0-3.68,1.81-3.68,4.67
		c0,2.43,1.25,4.45,3.65,4.45c1.41,0,2.66-0.87,3.12-2.3c0.13-0.38,0.18-0.82,0.18-1.2V322.86z M257.22,328.53
		c0,2.86-0.59,4.57-1.76,5.67c-1.23,1.1-2.96,1.48-4.52,1.48c-1.48,0-3.12-0.36-4.11-1.02l0.56-1.74c0.82,0.54,2.09,1,3.63,1
		c2.3,0,3.98-1.2,3.98-4.34v-1.35h-0.05c-0.66,1.15-2.02,2.07-3.93,2.07c-3.07,0-5.26-2.61-5.26-6.03c0-4.19,2.73-6.54,5.59-6.54
		c2.15,0,3.29,1.1,3.86,2.12h0.05l0.08-1.86h1.99c-0.08,0.87-0.1,1.89-0.1,3.37V328.53z"/>
	<path class="st0" d="M260.77,317.98h2.25v12.36h-2.25V317.98z M263.28,314.5c0,0.77-0.54,1.38-1.43,1.38
		c-0.82,0-1.35-0.61-1.35-1.38s0.56-1.4,1.4-1.4C262.72,313.1,263.28,313.71,263.28,314.5"/>
	<path class="st0" d="M268.16,324.18c0,2.71,1.53,4.75,3.73,4.75c2.15,0,3.75-2.02,3.75-4.8c0-2.1-1.05-4.73-3.7-4.73
		C269.31,319.41,268.16,321.86,268.16,324.18 M277.94,324.06c0,4.57-3.19,6.56-6.16,6.56c-3.32,0-5.93-2.45-5.93-6.36
		c0-4.11,2.73-6.54,6.13-6.54C275.54,317.72,277.94,320.3,277.94,324.06"/>
	<path class="st0" d="M288.9,315.01v2.96h3.22v1.71h-3.22v6.67c0,1.53,0.43,2.4,1.69,2.4c0.61,0,0.97-0.05,1.3-0.15l0.1,1.71
		c-0.43,0.15-1.12,0.31-1.99,0.31c-1.05,0-1.89-0.36-2.43-0.95c-0.61-0.69-0.87-1.79-0.87-3.24v-6.74h-1.92v-1.71h1.92v-2.3
		L288.9,315.01z"/>
	<path class="st0" d="M294.65,321.83c0-1.46-0.02-2.71-0.1-3.86h1.97l0.1,2.45h0.08c0.56-1.66,1.94-2.71,3.45-2.71
		c0.23,0,0.41,0.03,0.61,0.05v2.12c-0.23-0.05-0.46-0.05-0.77-0.05c-1.58,0-2.71,1.18-3.01,2.86c-0.05,0.31-0.08,0.69-0.08,1.05
		v6.59h-2.25V321.83z"/>
	<path class="st0" d="M303.11,317.98h2.25v12.36h-2.25V317.98z M305.61,314.5c0,0.77-0.54,1.38-1.43,1.38
		c-0.82,0-1.35-0.61-1.35-1.38s0.56-1.4,1.4-1.4C305.05,313.1,305.61,313.71,305.61,314.5"/>
	<path class="st0" d="M316.75,330.34v-10.65h-5.21v10.65h-2.22v-10.65h-1.71v-1.71h1.71v-0.38c0-1.74,0.41-3.22,1.38-4.21
		c0.72-0.71,1.74-1.15,3.12-1.15c0.72,0,1.38,0.23,1.76,0.43l-0.46,1.69c-0.33-0.18-0.82-0.33-1.33-0.33
		c-1.76,0-2.25,1.51-2.25,3.45v0.51h5.21v-0.59c0-1.74,0.38-3.32,1.43-4.32c0.84-0.82,1.97-1.15,2.99-1.15
		c0.82,0,1.51,0.18,1.92,0.36l-0.28,1.74c-0.36-0.15-0.79-0.28-1.46-0.28c-1.89,0-2.38,1.66-2.38,3.58v0.66h2.96v1.71h-2.96v10.65
		H316.75z"/>
	<path class="st0" d="M326.97,315.01v2.96h3.22v1.71h-3.22v6.67c0,1.53,0.43,2.4,1.69,2.4c0.61,0,0.97-0.05,1.3-0.15l0.1,1.71
		c-0.43,0.15-1.12,0.31-1.99,0.31c-1.05,0-1.89-0.36-2.43-0.95c-0.61-0.69-0.87-1.79-0.87-3.24v-6.74h-1.92v-1.71h1.92v-2.3
		L326.97,315.01z"/>
	<path class="st0" d="M332.11,329.01c0-0.92,0.64-1.61,1.53-1.61c0.89,0,1.51,0.66,1.51,1.61c0,0.92-0.61,1.61-1.56,1.61
		C332.72,330.62,332.11,329.93,332.11,329.01"/>
</g>
<path class="st1" d="M242.77,108.86c-6.51-3.88-43.35-23.09-70.52,10.76c0,0-5.53,6.09-9.74,15.67
	c-6.19,14.09-9.52,35.74,11.81,56.72c4.2,4.57,36.08,32.43,69.81,8.61c6.03-4.26,12.13-10.16,18.13-18.16
	C271.27,167.21,287.23,136.61,242.77,108.86z"/>
</svg>
